<svg width="512" height="512" viewBox="0 0 512 512" fill="none" xmlns="http://www.w3.org/2000/svg">
<g clip-path="url(#clip0_521_3748)">
<path fill-rule="evenodd" clip-rule="evenodd" d="M101.187 120.348C103.741 131.411 107.278 142.887 111.772 154.551C100.295 155.689 89.4151 157.459 79.2982 159.842C60.6675 164.231 43.382 170.993 29.6551 180.793C15.8045 190.682 4.1591 204.799 0.886386 223.494C-2.38633 242.19 3.7632 259.467 13.4207 273.531C22.992 287.469 36.9391 299.778 52.9559 310.321C55.9479 312.29 59.0495 314.222 62.2544 316.115C93.5387 334.731 134.814 349.506 180.299 357.584C231.596 366.695 280.397 361.818 317.484 351.024C319.513 350.434 321.517 349.823 323.494 349.192C318.046 372.341 314.34 394.418 312.597 413.982C310.894 433.088 310.928 451.214 313.767 466.077C315.915 477.319 321.279 494.992 336.702 503.908C338.76 505.158 341.002 506.251 343.447 507.147C362.039 513.963 379.103 505.22 389.702 497.37C401.226 488.837 412.33 476.236 422.613 461.843C443.392 432.758 464.369 391.309 481.335 344.357C498.301 297.406 508.683 252.073 511.325 216.339C512.633 198.655 512.168 181.814 508.787 167.815C506.056 156.511 499.948 141.454 485.917 133.334C483.768 132.03 481.429 130.891 478.881 129.956C462.233 123.853 446.312 129.438 434.826 136.571C423.097 143.854 412.038 155.006 401.904 168.024C394.798 177.154 387.702 187.781 380.754 199.738C369.394 170.568 351.416 137.735 324.857 105.853C296.257 71.5219 264.268 43.7059 233.668 25.6373C229.264 23.0176 224.889 20.5988 220.556 18.3907C203.483 9.6904 185.927 3.67868 169.157 2.29868C152.236 0.906247 134.807 4.78119 120.369 16.9836C106.141 29.1263 99.5851 46.6667 97.2932 63.7414C94.962 81.1099 96.6201 100.571 101.187 120.348ZM198.382 64.3742C201.51 65.9683 204.705 67.7262 207.956 69.6436C232.352 84.1727 259.801 107.629 285.313 138.253C301.444 157.617 313.771 177.256 322.95 195.66C292.985 179.525 255.312 166.752 214.199 159.45C198.043 156.581 182.099 154.688 166.655 153.741C159.157 138.049 153.79 122.759 150.563 108.781C146.95 93.1356 146.247 80.1381 147.53 70.5826C148.841 60.8175 151.82 57.057 153.165 55.9199C154.447 54.8362 157.741 52.9536 165.74 53.6119C173.89 54.2826 184.95 57.5294 198.382 64.3742ZM188.391 306.877C147.831 299.673 112.864 286.791 87.9686 272.11C85.6913 270.753 83.4999 269.382 81.3981 267.998C68.797 259.704 60.4757 251.68 55.8239 244.906C51.2584 238.257 51.2301 234.443 51.5208 232.782C51.8114 231.122 53.1331 227.548 59.6809 222.873C66.3524 218.11 76.8964 213.436 91.554 209.983C104.52 206.929 119.738 205.056 136.56 204.612C144.897 218.295 154.485 231.797 165.283 244.76C190.873 275.477 221.148 296.998 251.182 310.332C231.561 311.596 210.258 310.761 188.391 306.877ZM206.107 210.157C246.668 217.361 281.637 230.244 306.532 244.926C308.808 246.282 310.998 247.653 313.099 249.036C325.7 257.33 334.022 265.354 338.674 272.129C339.292 273.03 339.828 273.879 340.291 274.678C338.127 275.156 335.676 275.551 332.914 275.816C322.488 276.815 309.313 275.762 294.559 271.785C265.1 263.844 231.511 244.822 204.117 211.938C203.431 211.115 202.752 210.291 202.079 209.464C203.418 209.687 204.76 209.918 206.107 210.157ZM442.509 199.951C449.204 191.35 454.963 185.706 459.413 182.343C460.597 189.097 461.031 199.012 460.061 212.125C457.852 241.993 448.829 282.631 432.987 326.472C417.146 370.313 398.124 407.285 380.755 431.596C374.198 440.774 368.355 447.469 363.529 451.967C362.609 443.899 362.565 432.815 363.799 418.968C366.643 387.042 375.805 345.448 390.394 303.676C391.156 302.039 391.835 300.317 392.401 298.51C393.679 295.765 394.567 293.01 395.198 290.444C410.336 250.314 427.282 219.513 442.509 199.951Z" fill="black"/>
</g>
<defs>
<clipPath id="clip0_521_3748">
<rect width="512" height="512" fill="white"/>
</clipPath>
</defs>
</svg>
