<svg width="515" height="515" viewBox="0 0 515 515" fill="none" xmlns="http://www.w3.org/2000/svg">
<path fill-rule="evenodd" clip-rule="evenodd" d="M103.187 122.319C105.741 133.382 109.278 144.858 113.772 156.522C102.295 157.66 91.4151 159.43 81.2982 161.813C62.6675 166.202 45.382 172.964 31.6551 182.764C17.8045 192.653 6.1591 206.77 2.88639 225.465C-0.386329 244.16 5.7632 261.438 15.4207 275.502C24.992 289.44 38.9391 301.749 54.9559 312.291C57.9479 314.261 61.0495 316.193 64.2544 318.085C95.5387 336.702 136.814 351.476 182.299 359.555C233.596 368.665 282.397 363.789 319.484 352.995C321.513 352.404 323.517 351.793 325.494 351.162C320.046 374.311 316.34 396.389 314.597 415.953C312.894 435.058 312.928 453.185 315.767 468.048C317.915 479.29 323.279 496.963 338.702 505.878C340.76 507.129 343.002 508.221 345.447 509.117C364.039 515.934 381.103 507.191 391.702 499.341C403.226 490.807 414.33 478.207 424.613 463.813C445.392 434.728 466.369 393.279 483.335 346.328C500.301 299.377 510.683 254.044 513.325 218.31C514.633 200.626 514.168 183.784 510.787 169.786C508.056 158.482 501.948 143.425 487.917 135.305C485.768 134.001 483.429 132.861 480.881 131.927C464.233 125.824 448.312 131.409 436.826 138.542C425.097 145.825 414.038 156.976 403.904 169.995C396.798 179.124 389.702 189.751 382.754 201.708C371.394 172.538 353.416 139.706 326.857 107.824C298.257 73.4926 266.268 45.6766 235.668 27.608C231.264 24.9883 226.889 22.5695 222.556 20.3614C205.483 11.6611 187.927 5.64938 171.157 4.26938C154.236 2.87695 136.807 6.75189 122.369 18.9543C108.141 31.097 101.585 48.6374 99.2932 65.7121C96.962 83.0806 98.6201 102.541 103.187 122.319ZM200.382 66.3449C203.51 67.939 206.705 69.6969 209.956 71.6143C234.352 86.1434 261.801 109.6 287.313 140.224C303.444 159.588 315.771 179.227 324.95 197.631C294.985 181.495 257.312 168.723 216.199 161.421C200.043 158.551 184.099 156.659 168.655 155.712C161.157 140.02 155.79 124.73 152.563 110.752C148.95 95.1063 148.247 82.1088 149.53 72.5533C150.841 62.7882 153.82 59.0277 155.165 57.8906C156.447 56.8069 159.741 54.9243 167.74 55.5826C175.89 56.2533 186.95 59.5001 200.382 66.3449ZM190.391 308.848C149.831 301.644 114.864 288.762 89.9686 274.08C87.6913 272.724 85.4999 271.352 83.3981 269.969C70.797 261.675 62.4757 253.651 57.8239 246.876C53.2584 240.228 53.2301 236.413 53.5208 234.753C53.8114 233.093 55.1331 229.518 61.6809 224.844C68.3524 220.08 78.8964 215.407 93.554 211.954C106.52 208.899 121.738 207.027 138.56 206.583C146.897 220.266 156.485 233.768 167.283 246.731C192.873 277.448 223.148 298.969 253.182 312.303C233.561 313.566 212.258 312.731 190.391 308.848ZM208.107 212.128C248.668 219.332 283.637 232.215 308.532 246.897C310.808 248.253 312.998 249.624 315.099 251.007C327.7 259.301 336.022 267.325 340.674 274.099C341.292 275.001 341.828 275.85 342.291 276.649C340.127 277.127 337.676 277.522 334.914 277.786C324.488 278.785 311.313 277.732 296.559 273.756C267.1 265.815 233.511 246.792 206.117 213.909C205.431 213.086 204.752 212.261 204.079 211.434C205.418 211.658 206.76 211.889 208.107 212.128ZM444.509 201.921C451.204 193.321 456.963 187.676 461.413 184.314C462.597 191.068 463.031 200.983 462.061 214.095C459.852 243.964 450.829 284.602 434.987 328.443C419.146 372.283 400.124 409.256 382.755 433.567C376.198 442.745 370.355 449.44 365.529 453.938C364.609 445.87 364.565 434.786 365.799 420.939C368.643 389.013 377.805 347.418 392.394 305.646C393.156 304.01 393.835 302.288 394.401 300.481C395.679 297.735 396.567 294.981 397.198 292.414C412.336 252.285 429.282 221.483 444.509 201.921Z" fill="black"/>
</svg>